<svg width="100" height="100" viewBox="0 0 100 100" fill="none" xmlns="http://www.w3.org/2000/svg">
<style>
  path { fill: #060606; }
  @media (prefers-color-scheme: dark) {
    path { fill: #f5f5f5; }
  }
</style>
<path d="M4.736 69.176C3.37067 69.2613 2.32533 68.4293 1.6 66.68C1.088 65.5707 1.36533 64.5253 2.432 63.544C2.73067 63.3307 3.2 63.1813 3.84 63.096C4.48 62.968 5.26933 62.8827 6.208 62.84C7.14667 62.7547 7.65867 62.712 7.744 62.712L9.536 62.648C10.4747 62.6907 11.1147 62.7547 11.456 62.84L12.864 62.648L14.656 62.392C15.8507 62.2213 16.576 62.136 16.832 62.136L16.768 61.752C16.0427 61.752 15.5093 61.624 15.168 61.368C14.4853 60.8987 13.9093 60.216 13.44 59.32C12.9707 58.3813 12.6507 57.656 12.48 57.144C12.352 56.632 12.16 55.6293 11.904 54.136C11.6907 52.6 11.584 51.7893 11.584 51.704V51.064C11.4987 49.3573 11.5413 46.4347 11.712 42.296C11.9253 38.1147 11.9253 35.1707 11.712 33.464C11.6693 33.0373 11.9467 32.6107 12.544 32.184C13.184 31.7147 13.5253 31.4373 13.568 31.352L13.504 31.288L13.312 31.032C10.0267 30.008 7.50933 29.0693 5.76 28.216C4.05333 27.3627 2.90133 26.5733 2.304 25.848C1.70667 25.08 1.32267 24.1413 1.152 23.032C1.74933 21.752 2.624 21.112 3.776 21.112C4.24533 21.112 4.71467 21.1973 5.184 21.368L6.208 21.944C7.104 22.1147 7.616 22.2213 7.744 22.264C13.5893 23.928 19.392 26.232 25.152 29.176C30.9547 32.0773 35.6053 35.3627 39.104 39.032C42.1333 42.5733 44.096 45.176 44.992 46.84C46.528 49.6133 47.04 52.2373 46.528 54.712C46.272 55.3947 45.9947 56.0133 45.696 56.568C45.3973 57.1227 45.0133 57.656 44.544 58.168C44.1173 58.68 43.7333 59.128 43.392 59.512C43.0933 59.8533 42.624 60.2373 41.984 60.664C41.344 61.048 40.8747 61.3467 40.576 61.56C40.2773 61.7733 39.7013 62.072 38.848 62.456C38.0373 62.7973 37.4827 63.032 37.184 63.16C36.928 63.288 36.288 63.5653 35.264 63.992C34.2827 64.376 33.6853 64.6107 33.472 64.696C31.3387 65.3787 29.184 65.912 27.008 66.296C24.8747 66.68 22.2933 67.0427 19.264 67.384C16.2773 67.7253 14.0373 68.0027 12.544 68.216L8.96 68.728L5.568 69.176H4.736ZM20.8 61.24C27.6267 60.7707 33.2373 59.192 37.632 56.504C37.8027 56.376 38.2507 55.9493 38.976 55.224C39.7013 54.456 40.1707 53.9227 40.384 53.624C40.64 53.368 40.768 53.0907 40.768 52.792L40.704 51.384C40.448 49.9333 39.7867 48.4187 38.72 46.84C37.6533 45.2187 36.7147 43.9813 35.904 43.128C35.0933 42.2747 33.856 41.08 32.192 39.544C26.432 35.6187 21.184 33.0373 16.448 31.8H16C16.2133 32.0133 16.4053 32.2693 16.576 32.568C17.088 33.8053 17.3653 35.128 17.408 36.536C17.4507 37.944 17.3867 39.3093 17.216 40.632C17.3013 44.5147 17.4507 47.8853 17.664 50.744C18.5173 53.9013 19.0933 55.8 19.392 56.44C19.6053 57.592 19.648 58.6587 19.52 59.64C19.52 60.024 19.392 60.3013 19.136 60.472L18.368 61.304L20.8 61.24ZM95.6975 71.672C95.1002 71.7573 94.4602 71.7573 93.7775 71.672C93.1375 71.5867 92.5402 71.288 91.9855 70.776C91.0895 70.3067 90.4068 69.7093 89.9375 68.984C89.4682 68.3013 89.0628 67.3627 88.7215 66.168C88.3802 64.9733 88.1242 64.184 87.9535 63.8C87.4842 62.648 87.0362 61.0267 86.6095 58.936C86.1828 56.8453 85.7562 55.2453 85.3295 54.136C85.2015 53.5387 85.0522 52.3227 84.8815 50.488C84.7108 48.6107 84.4548 47.224 84.1135 46.328C84.1135 46.328 84.0922 46.1573 84.0495 45.816C83.9215 44.7067 83.7935 44.152 83.6655 44.152C83.2815 44.8773 82.8548 45.816 82.3855 46.968C81.9588 48.0773 81.4895 49.3787 80.9775 50.872C80.4655 52.3653 80.0815 53.4533 79.8255 54.136C78.8442 55.4587 77.5002 56.2053 75.7935 56.376C74.1722 55.3093 72.6148 53.368 71.1215 50.552C70.9508 50.2533 70.6522 49.592 70.2255 48.568C69.8415 47.544 69.4362 46.4133 69.0095 45.176C68.5828 43.896 68.3482 43.2133 68.3055 43.128L67.2175 39.416C66.5348 43.128 65.5962 46.712 64.4015 50.168C61.7988 57.08 59.7508 62.0507 58.2575 65.08C58.2148 65.1227 58.0655 65.272 57.8095 65.528C57.5535 65.7413 57.3828 65.8693 57.2975 65.912C57.2548 65.9547 57.0842 66.0827 56.7855 66.296C56.5295 66.5093 56.3588 66.616 56.2735 66.616C56.2308 66.616 56.0602 66.7013 55.7615 66.872C55.4628 67 55.2708 67.0427 55.1855 67C55.1002 66.9147 54.9082 66.8933 54.6095 66.936C53.8415 66.68 52.9242 65.4853 51.8575 63.352C51.4308 62.3707 51.3882 61.3253 51.7295 60.216C52.8815 59.448 54.2468 57.72 55.8255 55.032C56.0388 54.52 56.5295 53.368 57.2975 51.576C58.0655 49.784 58.6202 48.4613 58.9615 47.608C59.3455 46.712 59.7722 45.5387 60.2415 44.088C60.7108 42.5947 61.0735 41.2293 61.3295 39.992C61.5428 39.1387 61.8628 37.1333 62.2895 33.976C62.7162 30.8187 63.1855 28.5787 63.6975 27.256C64.3375 26.4027 64.8922 25.976 65.3615 25.976C65.6602 25.976 66.1082 26.104 66.7055 26.36C67.6015 26.7013 68.3055 27.1493 68.8175 27.704C69.3722 28.216 69.9268 28.9627 70.4815 29.944C70.5242 30.072 70.6308 30.2853 70.8015 30.584C70.9722 30.84 71.1215 31.0747 71.2495 31.288L71.4415 31.672L75.4735 46.328C75.4735 46.456 75.6442 46.584 75.9855 46.712C76.4548 46.2427 77.0308 45.0693 77.7135 43.192C78.3962 41.3147 78.8655 40.12 79.1215 39.608C80.2308 37.2187 80.9348 34.1253 81.2335 30.328C81.1482 30.0293 81.1908 29.7093 81.3615 29.368C81.5322 28.984 81.8095 28.5573 82.1935 28.088C82.5775 27.576 82.7908 27.2987 82.8335 27.256C83.0042 27.256 83.3455 27.2987 83.8575 27.384C84.3695 27.4267 84.8388 27.4907 85.2655 27.576L85.9695 27.704C86.0548 27.7467 86.3748 28.0027 86.9295 28.472C87.5268 28.8987 87.9322 29.24 88.1455 29.496C88.6575 29.8373 89.0202 30.712 89.2335 32.12C89.4468 33.4853 89.5748 34.2107 89.6175 34.296C89.6602 35.0213 89.6815 37.2827 89.6815 41.08C89.6815 44.8347 89.8735 47.1173 90.2575 47.928C90.5988 52.536 91.9642 58.2533 94.3535 65.08C94.4388 65.3787 94.8228 66.0827 95.5055 67.192C96.2308 68.344 96.6148 69.048 96.6575 69.304C96.8708 69.6453 96.7642 70.1147 96.3375 70.712C95.9108 71.3093 95.6975 71.6293 95.6975 71.672Z"/>
</svg>
